<svg xmlns="http://www.w3.org/2000/svg" xmlns:xlink="http://www.w3.org/1999/xlink" viewBox="0,0,256,256" width="24px" height="24px"><g fill="#0075ff" fill-rule="nonzero" stroke="none" stroke-width="1" stroke-linecap="butt" stroke-linejoin="miter" stroke-miterlimit="10" stroke-dasharray="" stroke-dashoffset="0" font-family="none" font-weight="none" font-size="none" text-anchor="none" style="mix-blend-mode: normal"><g transform="scale(10.66667,10.66667)"><path d="M12,3l-10,2v14l10,2zM14,5v2h6v2h-6v2h6v2h-6v2h6v2h-6v2h7c0.552,0 1,-0.448 1,-1v-12c0,-0.552 -0.448,-1 -1,-1zM3.29492,8.29492h1.53516l0.49219,3.47852c0.035,0.209 0.06231,0.4937 0.07031,0.8457h0.02539c0.008,-0.257 0.04447,-0.55024 0.10547,-0.86524l0.63086,-3.45898h1.86914l0.58398,3.44727c0.035,0.181 0.05994,0.44701 0.08594,0.79101h0.01953c0.008,-0.267 0.03436,-0.54408 0.06836,-0.83008l0.47852,-3.4082h1.44336l-1.38281,7.41016h-1.31445l-0.87891,-3.96094c-0.044,-0.247 -0.06812,-0.52508 -0.07812,-0.83008h-0.01758c-0.018,0.333 -0.0527,0.61008 -0.0957,0.83008l-0.89648,3.96094h-1.36719z"></path></g></g></svg>